<?xml version="1.0" encoding="UTF-8"?>
<!DOCTYPE svg PUBLIC "-//W3C//DTD SVG 1.1//EN" "http://www.w3.org/Graphics/SVG/1.1/DTD/svg11.dtd">
<svg xmlns="http://www.w3.org/2000/svg" version="1.1" width="100px" height="100px" style="shape-rendering:geometricPrecision; text-rendering:geometricPrecision; image-rendering:optimizeQuality; fill-rule:evenodd; clip-rule:evenodd" xmlns:xlink="http://www.w3.org/1999/xlink">
<g><path style="opacity:0.957" fill="#f95151" d="M 10.5,6.5 C 14.5138,6.33449 18.5138,6.50115 22.5,7C 25.6928,8.02553 27.0262,10.1922 26.5,13.5C 48.4087,13.173 70.242,13.5063 92,14.5C 90.4765,27.4917 88.4765,40.4917 86,53.5C 84.8333,54.6667 83.6667,55.8333 82.5,57C 73.1726,57.4998 63.8393,57.6665 54.5,57.5C 55.0262,60.8078 53.6928,62.9745 50.5,64C 42.5,64.3333 34.5,64.6667 26.5,65C 23.4167,66.1392 20.4167,67.4725 17.5,69C 41.5,69.3333 65.5,69.6667 89.5,70C 91.3684,70.899 92.3684,72.399 92.5,74.5C 91.7475,77.0728 90.4141,79.2395 88.5,81C 90.0674,87.6202 87.4008,91.4536 80.5,92.5C 73.6054,90.7924 71.2721,86.6257 73.5,80C 60.8377,79.5001 48.1711,79.3334 35.5,79.5C 36.356,91.4679 31.5227,94.8012 21,89.5C 19.3125,86.3759 19.1459,83.2092 20.5,80C 8.17679,80.22 4.01012,74.3867 8,62.5C 11.7732,59.6957 15.9399,57.5291 20.5,56C 21.1078,54.769 21.4411,53.4357 21.5,52C 19.959,40.8388 18.459,29.6722 17,18.5C 14.1413,17.8266 11.308,16.9932 8.5,16C 5.74272,12.1065 6.40938,8.93984 10.5,6.5 Z M 27.5,17.5 C 30.8333,17.5 34.1667,17.5 37.5,17.5C 38.1762,21.4905 36.5095,23.1571 32.5,22.5C 28.4905,23.1571 26.8238,21.4905 27.5,17.5 Z M 41.5,17.5 C 44.5184,17.3354 47.5184,17.502 50.5,18C 49.6198,19.3561 49.2865,20.8561 49.5,22.5C 46.8333,22.5 44.1667,22.5 41.5,22.5C 41.5,20.8333 41.5,19.1667 41.5,17.5 Z M 54.5,17.5 C 57.1667,17.5 59.8333,17.5 62.5,17.5C 63.1762,21.4905 61.5095,23.1571 57.5,22.5C 56.1667,22.1667 54.8333,21.8333 53.5,21.5C 54.2458,20.2638 54.5792,18.9305 54.5,17.5 Z M 66.5,17.5 C 69.5184,17.3354 72.5184,17.502 75.5,18C 74.6198,19.3561 74.2865,20.8561 74.5,22.5C 71.8333,22.5 69.1667,22.5 66.5,22.5C 66.5,20.8333 66.5,19.1667 66.5,17.5 Z M 79.5,17.5 C 82.1667,17.5 84.8333,17.5 87.5,17.5C 88.1762,21.4905 86.5095,23.1571 82.5,22.5C 81.1667,22.1667 79.8333,21.8333 78.5,21.5C 79.2458,20.2638 79.5792,18.9305 79.5,17.5 Z M 28.5,26.5 C 31.2469,26.1866 33.9135,26.52 36.5,27.5C 35.7542,28.7362 35.4208,30.0695 35.5,31.5C 33.5,31.5 31.5,31.5 29.5,31.5C 29.3713,29.7839 29.038,28.1172 28.5,26.5 Z M 40.5,26.5 C 43.1667,26.5 45.8333,26.5 48.5,26.5C 48.5,28.1667 48.5,29.8333 48.5,31.5C 45.4281,31.8174 42.4281,31.4841 39.5,30.5C 40.2458,29.2638 40.5792,27.9305 40.5,26.5 Z M 52.5,26.5 C 55.5719,26.1826 58.5719,26.5159 61.5,27.5C 60.7542,28.7362 60.4208,30.0695 60.5,31.5C 57.8333,31.5 55.1667,31.5 52.5,31.5C 52.5,29.8333 52.5,28.1667 52.5,26.5 Z M 65.5,26.5 C 68.1667,26.5 70.8333,26.5 73.5,26.5C 73.5,28.1667 73.5,29.8333 73.5,31.5C 70.4281,31.8174 67.4281,31.4841 64.5,30.5C 65.2458,29.2638 65.5792,27.9305 65.5,26.5 Z M 77.5,26.5 C 80.5719,26.1826 83.5719,26.5159 86.5,27.5C 85.7542,28.7362 85.4208,30.0695 85.5,31.5C 82.8333,31.5 80.1667,31.5 77.5,31.5C 77.5,29.8333 77.5,28.1667 77.5,26.5 Z M 30.5,35.5 C 31.8333,35.5 33.1667,35.5 34.5,35.5C 34.6621,37.5273 34.4955,39.5273 34,41.5C 32.9887,42.3366 31.8221,42.67 30.5,42.5C 30.5,40.1667 30.5,37.8333 30.5,35.5 Z M 39.5,35.5 C 42.2469,35.1866 44.9135,35.52 47.5,36.5C 46.6518,38.4086 46.3184,40.4086 46.5,42.5C 43.8333,42.5 41.1667,42.5 38.5,42.5C 38.298,40.0504 38.6314,37.717 39.5,35.5 Z M 51.5,35.5 C 54.1667,35.5 56.8333,35.5 59.5,35.5C 59.7564,37.7925 59.4231,39.9592 58.5,42C 55.854,42.4974 53.1873,42.6641 50.5,42.5C 50.9926,40.1944 51.3259,37.861 51.5,35.5 Z M 64.5,35.5 C 67.2469,35.1866 69.9135,35.52 72.5,36.5C 71.6518,38.4086 71.3184,40.4086 71.5,42.5C 68.8333,42.5 66.1667,42.5 63.5,42.5C 63.298,40.0504 63.6314,37.717 64.5,35.5 Z M 76.5,35.5 C 79.1667,35.5 81.8333,35.5 84.5,35.5C 84.7564,37.7925 84.4231,39.9592 83.5,42C 80.854,42.4974 78.1873,42.6641 75.5,42.5C 75.9926,40.1944 76.3259,37.861 76.5,35.5 Z M 31.5,46.5 C 33.6456,46.6964 33.8122,47.6964 32,49.5C 31.5172,48.552 31.3505,47.552 31.5,46.5 Z M 37.5,46.5 C 40.1667,46.5 42.8333,46.5 45.5,46.5C 45.3259,48.861 44.9926,51.1944 44.5,53.5C 41.8333,53.5 39.1667,53.5 36.5,53.5C 36.6741,51.139 37.0074,48.8056 37.5,46.5 Z M 49.5,46.5 C 52.5184,46.3354 55.5184,46.502 58.5,47C 57.5769,49.0408 57.2436,51.2075 57.5,53.5C 54.4816,53.6646 51.4816,53.498 48.5,53C 49.4231,50.9592 49.7564,48.7925 49.5,46.5 Z M 62.5,46.5 C 65.1667,46.5 67.8333,46.5 70.5,46.5C 70.3259,48.861 69.9926,51.1944 69.5,53.5C 66.8333,53.5 64.1667,53.5 61.5,53.5C 61.6741,51.139 62.0074,48.8056 62.5,46.5 Z M 74.5,46.5 C 77.5184,46.3354 80.5184,46.502 83.5,47C 82.7062,53.0405 79.3729,55.0405 73.5,53C 74.4231,50.9592 74.7564,48.7925 74.5,46.5 Z"/></g>
</svg>
